<svg width="148" height="32" viewBox="0 0 148 32" fill="none" xmlns="http://www.w3.org/2000/svg">
<g filter="url(#filter0_d_0_31)">
<g clip-path="url(#clip0_0_31)">
<path fill-rule="evenodd" clip-rule="evenodd" d="M49.0018 5L55.2891 17.5571L54.4983 19.1196L47.1697 5H49.0018ZM69.3871 5L62.1163 19.1196L54.4598 5H56.2341L62.1163 16.051C62.412 15.4861 62.7463 14.8367 63.1191 14.1025C63.492 13.3682 63.8681 12.6121 64.2474 11.8339C64.6267 11.0557 65.0028 10.287 65.3756 9.52769C65.7484 8.76837 66.086 8.07494 66.3881 7.4474C66.6903 6.81986 66.9442 6.28646 67.1499 5.84718C67.3556 5.4079 67.4906 5.12551 67.5549 5H69.3871ZM83.2619 6.37431V5H73.9275V19.1384H83.2619V17.7642H75.3547V12.7752H81.9505V11.4009H75.3547V6.37431H83.2619ZM87.4167 19.1384V5H88.8438V17.7642H96.7511V19.1384H87.4167ZM100.906 5V19.1384H107.829C107.932 19.1384 108.161 19.1039 108.514 19.0349C108.868 18.9658 109.25 18.8121 109.662 18.5737C109.855 18.4607 110.057 18.3132 110.269 18.1313C110.481 17.9492 110.671 17.7265 110.838 17.4629C111.005 17.1993 111.143 16.8887 111.253 16.5311C111.362 16.1733 111.417 15.756 111.417 15.2791C111.417 14.7394 111.346 14.2687 111.205 13.8671C111.063 13.4655 110.883 13.1204 110.665 12.8317C110.446 12.543 110.198 12.3108 109.922 12.1351C109.646 11.9594 109.366 11.8213 109.083 11.7209C109.366 11.4448 109.61 11.0652 109.816 10.582C110.022 10.0988 110.124 9.51828 110.124 8.84053C110.124 8.3385 110.07 7.90551 109.961 7.54153C109.851 7.17756 109.713 6.86379 109.546 6.60023C109.379 6.33666 109.192 6.11702 108.987 5.94131C108.781 5.7656 108.582 5.62126 108.389 5.50831C108.17 5.3828 107.961 5.28553 107.762 5.2165C107.563 5.14747 107.383 5.09727 107.222 5.06589C107.061 5.03451 106.929 5.01569 106.827 5.00941C106.724 5.00314 106.666 5 106.653 5H100.906ZM107.791 17.7642C107.842 17.7642 107.984 17.7422 108.215 17.6982C108.447 17.6543 108.694 17.5508 108.958 17.3877C109.221 17.2244 109.456 16.9766 109.662 16.6439C109.867 16.3114 109.97 15.8564 109.97 15.2791C109.97 14.7017 109.867 14.2468 109.662 13.9142C109.456 13.5816 109.221 13.3306 108.958 13.1611C108.694 12.9917 108.443 12.885 108.206 12.8411C107.968 12.7972 107.823 12.7752 107.772 12.7752H102.333V17.7642H107.791ZM107.068 11.3256C106.843 11.3758 106.704 11.4009 106.653 11.4009H102.333V6.37431H106.653C106.679 6.37431 106.801 6.39313 107.019 6.43078C107.238 6.46844 107.476 6.56571 107.733 6.72259C107.99 6.87948 108.225 7.12422 108.437 7.45681C108.649 7.78941 108.755 8.25065 108.755 8.84053C108.755 9.41787 108.656 9.87598 108.456 10.2148C108.257 10.5537 108.032 10.811 107.781 10.9867C107.531 11.1624 107.293 11.2754 107.068 11.3256ZM125.639 5V6.37431H117.731V11.4009H124.327V12.7752H117.731V17.7642H125.639V19.1384H116.304V5H125.639ZM136.331 13.1141L141.153 19.1384H143.043L137.431 12.0598L143.043 5H141.153L136.331 11.0244L131.78 5H129.639L135.251 12.0598L129.639 19.1384H131.78L136.331 13.1141Z" fill="#E4E5EA"/>
</g>
<g clip-path="url(#clip1_0_31)">
<path fill-rule="evenodd" clip-rule="evenodd" d="M28.5946 0H4V12.7841H5.3208V1.28886H27.2738V5.52746H25.0842V5.53671H25.0684C25.0096 5.65146 24.8861 5.90965 24.698 6.31127C24.5098 6.7129 24.2776 7.20058 24.0012 7.77434C23.7249 8.34809 23.4162 8.98207 23.0752 9.67634C22.7342 10.3706 22.3901 11.0734 22.0433 11.7848C21.6964 12.4963 21.3524 13.1876 21.0114 13.859C20.6704 14.5302 20.3647 15.1241 20.0941 15.6404L14.7143 5.53671H13.0915L20.0941 18.446L26.1009 6.7853H28.5927V6.77176H28.5946V0ZM4 17.1961H4.0061V17.1819H12.4704L6.42401 5.53671H8.0997L13.8499 17.0175L13.1268 18.446L13.1157 18.4247V18.4398H5.3208V22.7111H27.2738V11.1838H28.5946V24H4V17.1961ZM37.6949 24V0H39.0517V24H37.6949Z" fill="#E4E5EA"/>
</g>
</g>
<defs>
<filter id="filter0_d_0_31" x="0" y="0" width="148" height="32" filterUnits="userSpaceOnUse" color-interpolation-filters="sRGB">
<feFlood flood-opacity="0" result="BackgroundImageFix"/>
<feColorMatrix in="SourceAlpha" type="matrix" values="0 0 0 0 0 0 0 0 0 0 0 0 0 0 0 0 0 0 127 0" result="hardAlpha"/>
<feOffset dy="4"/>
<feGaussianBlur stdDeviation="2"/>
<feComposite in2="hardAlpha" operator="out"/>
<feColorMatrix type="matrix" values="0 0 0 0 0 0 0 0 0 0 0 0 0 0 0 0 0 0 0.25 0"/>
<feBlend mode="normal" in2="BackgroundImageFix" result="effect1_dropShadow_0_31"/>
<feBlend mode="normal" in="SourceGraphic" in2="effect1_dropShadow_0_31" result="shape"/>
</filter>
<clipPath id="clip0_0_31">
<rect width="97" height="15" fill="white" transform="translate(47 5)"/>
</clipPath>
<clipPath id="clip1_0_31">
<rect width="35" height="24" fill="white" transform="translate(4)"/>
</clipPath>
</defs>
</svg>
